<svg width="380" height="273" viewBox="0 0 380 273" xmlns="http://www.w3.org/2000/svg" xmlns:xlink="http://www.w3.org/1999/xlink"><title>category 1</title><defs><filter x="0%" y="0%" width="100%" height="100%" filterUnits="objectBoundingBox" id="a"><feGaussianBlur in="SourceGraphic"/></filter><path d="M0 5.8248C0 2.6078 2.6136 0 5.816 0h178.368C187.396 0 190 2.6117 190 5.8248v134.3504c0 3.217-2.6136 5.8248-5.816 5.8248H5.816C2.604 146 0 143.3883 0 140.1752V5.8248zM13.1538 13.14v119.72h163.6924V13.14H13.1538z" id="b"/><ellipse id="c" cx="40.9231" cy="42.34" rx="17.5385" ry="17.52"/><path d="M166.742 108.5404l-50.9654-55.5767c-2.1716-2.368-5.8456-2.517-8.2064-.3327L72.7756 84.8228c-2.3562 2.18-6.2344 2.2284-8.652.0987l-8.5923-7.5692c-2.4212-2.133-6.0085-1.8195-8.0204.6928l-24.4445 30.5234c-.651.1404-1.1434.7234-1.1434 1.4213v13.153c0 .804.6477 1.4534 1.4466 1.4534h143.2608c.795 0 1.4465-.6506 1.4465-1.4534v-13.153c0-.7662-.5883-1.392-1.335-1.4492z" id="d"/></defs><g fill="none" fill-rule="evenodd"><path fill="#FFF" filter="url(#a)" d="M0 0h380v273H0z"/><g opacity=".6583"><g transform="translate(94 64)"><use fill="#FFF" xlink:href="#b"/><path stroke="#C4CACC" stroke-width="2.912" d="M1.456 5.8248c0-2.4096 1.9585-4.3688 4.36-4.3688h178.368c2.406 0 4.36 1.9578 4.36 4.3688v134.3504c0 2.4096-1.9585 4.3688-4.36 4.3688H5.816c-2.406 0-4.36-1.9578-4.36-4.3688V5.8248zM11.6978 13.14v121.176H178.3022V11.684H11.6978v1.456z"/></g><g transform="translate(94 64)"><use fill="#FFF" xlink:href="#c"/><ellipse stroke="#C4CACC" stroke-width="2.912" cx="40.9231" cy="42.34" rx="16.0825" ry="16.064"/></g><g transform="translate(94 64)"><use fill="#FFF" xlink:href="#d"/><path stroke="#C4CACC" stroke-width="2.912" d="M23.379 109.9897v.0007-.0007zm143.242.0017v13.1488H23.379v-13.1498l.5005-.108.3235-.404 24.4443-30.5232c1.4935-1.865 4.125-2.093 5.9215-.5103l8.5924 7.569c2.976 2.6217 7.697 2.5663 10.6032-.1224l34.7946-32.192c1.769-1.6366 4.5183-1.525 6.1445.248l50.9654 55.577.3885.4237.5634.043z"/></g></g><path fill="#D8D8D8" d="M11 10h67v20H11z"/><path fill="#FFF" d="M25 18h20v4H25zM49 18h8v4h-8z"/><path fill="#D8D8D8" d="M335 242h27v20h-27z"/><path d="M339 250h5v4h-5v-4zm8 0h9v4h-9v-4z" fill="#FFF"/></g></svg>